<?xml version="1.0" encoding="utf-8"?>
<svg viewBox="0 0 500 500" xmlns="http://www.w3.org/2000/svg" xmlns:bx="https://boxy-svg.com">
  <defs>
    <linearGradient id="color-1" gradientUnits="userSpaceOnUse">
      <stop style="stop-color: rgb(255, 220, 0)"/>
    </linearGradient>
    <linearGradient id="color-2" gradientUnits="userSpaceOnUse" bx:pinned="true">
      <stop style="stop-color: rgb(101, 205, 67)"/>
    </linearGradient>
  </defs>
  <g transform="matrix(10.755258560180664, 0, 0, 10.755258560180664, 4.189113140106201, 294.7907409667968)">
    <defs/>
    <path d="M7.75 19.0003C6.28747 19.0003 5.0916 17.8586 5.00502 16.4178L5 16.2503L4.99952 14.9993C3.34293 14.9993 2 13.6564 2 11.9998C2 10.3432 3.34293 9.00028 4.99952 9.00028C6.07373 9.00028 7.03118 9.56906 7.56188 10.4391C8.07405 10.1929 8.64185 10.0416 9.24125 10.0076L9.5 10.0003H13.4995L13.7475 10.007L13.9935 10.0272L14.12 10.0443L14.23 9.87707L14.361 9.69928L12.584 7.92235C11.8843 7.22265 11.8107 6.13398 12.3631 5.35239L12.4671 5.21779L12.584 5.09042C13.3249 4.34956 14.5018 4.31057 15.2886 4.97344L15.416 5.09042L20.8284 10.5029C22.3905 12.065 22.3905 14.5976 20.8284 16.1597C20.1082 16.88 19.1629 17.282 18.1865 17.3273L17.9607 17.3314L17.779 17.3243L17.7528 17.3884C17.3675 18.2375 16.5642 18.8498 15.6146 18.9762L15.4228 18.9949L15.2495 19.0003H7.75ZM14.3553 6.15108C14.1591 5.95485 13.8409 5.95485 13.6447 6.15108C13.4703 6.3255 13.4509 6.59626 13.5866 6.7921L13.6447 6.86169L16.4528 9.6699L15.8149 10.3115C15.605 10.5215 15.4295 10.7558 15.2916 11.008L15.1952 11.2003L14.9287 11.7841L14.3107 11.6111C14.1146 11.5561 13.9126 11.5213 13.7066 11.5073L13.4995 11.5003H9.5C8.80076 11.5003 8.15739 11.7395 7.64728 12.1406L7.50409 12.2607L7.33898 12.4194L7.24566 12.5208L7.13486 12.6544L7.01378 12.8206L6.97161 12.8849C6.93089 12.9485 6.89251 13.0137 6.85658 13.0805L6.79897 13.1929L6.73697 13.3297L6.70271 13.414L6.65152 13.556L6.59714 13.7398C6.57164 13.8374 6.551 13.9367 6.53542 14.0373L6.52384 14.1203L6.50602 14.3087L6.5 14.5003V16.2503C6.5 16.8975 6.99187 17.4298 7.62219 17.4938L7.75 17.5003L12.001 17.4999L12.0019 17.2537C12.0019 16.6064 11.51 16.0741 10.8797 16.0101L10.7519 16.0037H9.75188C9.33767 16.0037 9.00188 15.6679 9.00188 15.2537C9.00188 14.874 9.28403 14.5602 9.65011 14.5105L9.75188 14.5037H10.7519C12.2144 14.5037 13.4103 15.6454 13.4969 17.0861L13.5019 17.2537L13.501 17.4999L15.2495 17.5003C15.8415 17.5003 16.344 17.0863 16.4678 16.5249L16.4885 16.4025L16.5872 15.5623L17.4095 15.7611C18.2518 15.9646 19.144 15.7228 19.7678 15.0991C20.7016 14.1652 20.7422 12.6763 19.8896 11.6942L19.7678 11.5635L14.3553 6.15108ZM4.99952 10.5003C4.17136 10.5003 3.5 11.1716 3.5 11.9998C3.5 12.7792 4.0947 13.4198 4.8551 13.4925L4.99952 13.4993L5.114 13.4943L5.11885 13.4685C5.15379 13.3196 5.19612 13.1735 5.24544 13.0307L5.34236 12.7762L5.44825 12.5405L5.50494 12.4272L5.63589 12.1928L5.72326 12.0527L5.86824 11.8426L5.94157 11.7454L6.05002 11.6109L6.17893 11.4637L6.329 11.3073C6.1194 10.9062 5.73907 10.6177 5.29202 10.5289L5.14067 10.5069L4.99952 10.5003Z" fill="#212121"/>
  </g>
  <g transform="matrix(10.755258560180664, 0, 0, 10.755258560180664, 228.88381958007815, 261.84405517578125)">
    <defs/>
    <path d="M11.3892 2.28688C9.36487 4.04712 8.57526 6.65119 9.02032 9.06973C7.4981 8.19392 5.82021 7.92924 3.89213 8.08991C3.36588 8.13377 2.96928 8.59789 3.01769 9.13047C3.17454 10.8558 3.96958 12.5677 5.07768 13.906C4.66531 13.902 4.24844 13.927 3.82943 13.9829C3.33885 14.0483 2.97695 14.4857 3.01551 14.987C3.31992 18.9444 6.61983 22.0002 10.5889 22.0002H12.7135L12.7349 21.9999H13.4103C17.3794 21.9999 20.6793 18.9441 20.9837 14.9868C21.0223 14.4854 20.6604 14.0481 20.1698 13.9826C19.7557 13.9274 19.3437 13.9023 18.9361 13.9056C20.0441 12.5674 20.8388 10.8557 20.9957 9.13047C21.0441 8.59789 20.6475 8.13377 20.1212 8.08991C18.1931 7.92923 16.5056 8.19378 14.9786 9.07073C15.4241 6.6519 14.6346 4.04736 12.61 2.28688C12.26 1.9825 11.7392 1.9825 11.3892 2.28688ZM11.9996 11.7261C9.86681 9.51278 9.86681 5.98717 11.9996 3.77388C14.1323 5.98717 14.1323 9.51278 11.9996 11.7261ZM11.9995 17.3343C10.9126 15.9516 9.43438 14.9105 7.76603 14.3559C7.73475 14.3253 7.70034 14.297 7.6629 14.2715C6.19291 13.2705 4.94353 11.4266 4.58959 9.55093C6.45872 9.4888 7.92612 9.93819 9.26483 11.0722C10.29 11.9406 10.7446 13.0002 11.0824 13.7873C11.1697 13.9909 11.2492 14.1762 11.3288 14.3353C11.4558 14.5894 11.7155 14.7499 11.9996 14.7499C12.2837 14.7499 12.5434 14.5894 12.6704 14.3353C12.75 14.1762 12.8295 13.9908 12.9169 13.7873C13.2546 13.0001 13.7093 11.9404 14.7344 11.0721C16.0725 9.93852 17.5514 9.4887 19.4238 9.55094C19.0699 11.4267 17.8207 13.2706 16.3506 14.2715C16.3162 14.2949 16.2844 14.3206 16.2552 14.3483C14.5778 14.9011 13.0912 15.9454 11.9995 17.3343ZM12.6434 19.0398C14.0356 16.7092 16.6453 15.2594 19.4216 15.4172C18.9345 18.3241 16.4106 20.4999 13.4103 20.4999H12.7239L12.7052 20.5002H10.5889C7.58857 20.5002 5.06472 18.3243 4.57759 15.4175C7.35387 15.2597 9.9635 16.7093 11.3557 19.0399C11.491 19.2665 11.7356 19.4052 11.9995 19.4052C12.2635 19.4052 12.5081 19.2665 12.6434 19.0398Z" style=""/>
  </g>
  <g transform="matrix(5.815806865692139, 0, 0, 5.815806865692139, -5.019118785858154, -6.320374965667725)" style="">
    <defs/>
    <path d="M 5.75 3 L 18.25 3 C 19.769 3 21 4.231 21 5.75 L 21 18.25 C 21 19.769 19.769 21 18.25 21 L 5.75 21 C 4.231 21 3 19.769 3 18.25 L 3 5.75 C 3 4.231 4.231 3 5.75 3 Z" style="fill: rgb(255, 0, 0);"/>
  </g>
  <g transform="matrix(5.815806865692139, 0, 0, 5.815806865692139, 108.98660278320312, -5.798395156860352)" style="">
    <defs/>
    <path d="M 5.75 3 L 18.25 3 C 19.769 3 21 4.231 21 5.75 L 21 18.25 C 21 19.769 19.769 21 18.25 21 L 5.75 21 C 4.231 21 3 19.769 3 18.25 L 3 5.75 C 3 4.231 4.231 3 5.75 3 Z" style="fill: rgb(255, 220, 0);"/>
  </g>
  <g transform="matrix(5.815806865692139, 0, 0, 5.815806865692139, -5.377630233764648, 105.75132751464844)" style="">
    <defs/>
    <path d="M 5.75 3 L 18.25 3 C 19.769 3 21 4.231 21 5.75 L 21 18.25 C 21 19.769 19.769 21 18.25 21 L 5.75 21 C 4.231 21 3 19.769 3 18.25 L 3 5.75 C 3 4.231 4.231 3 5.75 3 Z" style="fill: url('#color-1');"/>
  </g>
  <g transform="matrix(5.815806865692139, 0, 0, 5.815806865692139, 108.62808990478516, 106.27330017089844)" style="">
    <defs/>
    <path d="M 5.75 3 L 18.25 3 C 19.769 3 21 4.231 21 5.75 L 21 18.25 C 21 19.769 19.769 21 18.25 21 L 5.75 21 C 4.231 21 3 19.769 3 18.25 L 3 5.75 C 3 4.231 4.231 3 5.75 3 Z" style="fill: url('#color-2');"/>
  </g>
  <g transform="matrix(5.815806865692139, 0, 0, 5.815806865692139, 222.75334167480472, -6.7983927726745605)" style="">
    <defs/>
    <path d="M 5.75 3 L 18.25 3 C 19.769 3 21 4.231 21 5.75 L 21 18.25 C 21 19.769 19.769 21 18.25 21 L 5.75 21 C 4.231 21 3 19.769 3 18.25 L 3 5.75 C 3 4.231 4.231 3 5.75 3 Z" style="fill: rgb(101, 205, 67);"/>
  </g>
  <g transform="matrix(5.815806865692139, 0, 0, 5.815806865692139, -3.8053910732269287, 216.89227294921875)" style="">
    <defs/>
    <path d="M 5.75 3 L 18.25 3 C 19.769 3 21 4.231 21 5.75 L 21 18.25 C 21 19.769 19.769 21 18.25 21 L 5.75 21 C 4.231 21 3 19.769 3 18.25 L 3 5.75 C 3 4.231 4.231 3 5.75 3 Z" style="fill: url('#color-2');"/>
  </g>
  <g transform="matrix(5.815806865692139, 0, 0, 5.815806865692139, 341.7928466796875, -6.330770969390869)" style="">
    <defs/>
    <path d="M 5.75 3 L 18.25 3 C 19.769 3 21 4.231 21 5.75 L 21 18.25 C 21 19.769 19.769 21 18.25 21 L 5.75 21 C 4.231 21 3 19.769 3 18.25 L 3 5.75 C 3 4.231 4.231 3 5.75 3 Z" style="fill: rgb(101, 205, 67);"/>
  </g>
  <g transform="matrix(5.815806865692139, 0, 0, 5.815806865692139, 223.56652832031253, 107.16649627685547)" style="">
    <defs/>
    <path d="M 5.75 3 L 18.25 3 C 19.769 3 21 4.231 21 5.75 L 21 18.25 C 21 19.769 19.769 21 18.25 21 L 5.75 21 C 4.231 21 3 19.769 3 18.25 L 3 5.75 C 3 4.231 4.231 3 5.75 3 Z" style="fill: rgb(101, 205, 67);"/>
  </g>
  <g transform="matrix(5.815806865692139, 0, 0, 5.815806865692139, 109.13194274902344, 216.57373046875)" style="">
    <defs/>
    <path d="M 5.75 3 L 18.25 3 C 19.769 3 21 4.231 21 5.75 L 21 18.25 C 21 19.769 19.769 21 18.25 21 L 5.75 21 C 4.231 21 3 19.769 3 18.25 L 3 5.75 C 3 4.231 4.231 3 5.75 3 Z" style="fill: url('#color-2');"/>
  </g>
</svg>